<svg xmlns="http://www.w3.org/2000/svg" viewBox="0 0 1200 800" width="1200" height="800">
<defs><filter id="g"><feTurbulence type="fractalNoise" baseFrequency=".9" numOctaves="2" stitchTiles="stitch"/><feColorMatrix values="0 0 0 0 .45 0 0 0 0 .32 0 0 0 0 .2 0 0 0 .07 0"/></filter>
<radialGradient id="b1"><stop offset="0" stop-color="#E4EEF6"/><stop offset="1" stop-color="#E4EEF6" stop-opacity="0"/></radialGradient>
<radialGradient id="b2"><stop offset="0" stop-color="#FBE3D2"/><stop offset="1" stop-color="#FBE3D2" stop-opacity="0"/></radialGradient></defs>
<rect width="1200" height="800" fill="#FBF4E9"/>
<circle cx="640" cy="360" r="380" fill="url(#b1)"/><circle cx="1000" cy="200" r="260" fill="url(#b2)"/>
<ellipse cx="600" cy="640" rx="470" ry="26" fill="#6B4A33" opacity=".08"/>
<path d="M120 600 H1080 Q1092 600 1092 612 V640 Q1092 652 1080 652 H120 Q108 652 108 640 V612 Q108 600 120 600Z" fill="#E3B98A" stroke="#6B4A33" stroke-width="5" stroke-linejoin="round" stroke-linecap="round"/>
<path d="M170 624 H420 M520 630 H700 M800 622 H1020" stroke="#CF9F6E" stroke-width="4" stroke-linecap="round"/>
<path d="M380 350 C430 350 440 400 470 410 M400 520 C440 520 450 480 470 470 M880 340 C820 340 790 380 730 400 M900 510 C840 510 790 480 730 470" stroke="#D9774A" stroke-width="5" fill="none" stroke-dasharray="10 10" stroke-linecap="round"/><g transform="rotate(-8 300 350)"><rect x="230" y="300" width="150" height="100" rx="14" fill="#FFF8EE" stroke="#6B4A33" stroke-width="5" stroke-linejoin="round" stroke-linecap="round"/><path d="M250 334 H350 M250 362 H320" stroke="#6B4A33" stroke-width="7" stroke-linecap="round" opacity=".5"/></g><g transform="rotate(5 320 520)"><rect x="250" y="470" width="150" height="100" rx="14" fill="#E9B64F" stroke="#6B4A33" stroke-width="5" stroke-linejoin="round" stroke-linecap="round"/><path d="M270 504 H370 M270 532 H340" stroke="#6B4A33" stroke-width="7" stroke-linecap="round" opacity=".5"/></g><g transform="rotate(7 950 340)"><rect x="880" y="290" width="150" height="100" rx="14" fill="#FFF8EE" stroke="#6B4A33" stroke-width="5" stroke-linejoin="round" stroke-linecap="round"/><path d="M900 324 H1000 M900 352 H970" stroke="#6B4A33" stroke-width="7" stroke-linecap="round" opacity=".5"/></g><g transform="rotate(-5 970 510)"><rect x="900" y="460" width="150" height="100" rx="14" fill="#9CBFA3" stroke="#6B4A33" stroke-width="5" stroke-linejoin="round" stroke-linecap="round"/><path d="M920 494 H1020 M920 522 H990" stroke="#6B4A33" stroke-width="7" stroke-linecap="round" opacity=".5"/></g><rect x="470" y="300" width="260" height="300" rx="46" fill="#A9C6DD" fill-opacity=".55" stroke="#6B4A33" stroke-width="5" stroke-linejoin="round" stroke-linecap="round"/>
<rect x="490" y="262" width="220" height="54" rx="16" fill="#CF9F6E" stroke="#6B4A33" stroke-width="5" stroke-linejoin="round" stroke-linecap="round"/>
<path d="M540 470 C520 420 560 380 600 400 C630 360 690 390 675 430 C715 450 700 510 655 505 C640 540 580 540 570 505 C530 510 520 480 540 470Z" fill="#F2C1A0" stroke="#6B4A33" stroke-width="5" stroke-linejoin="round" stroke-linecap="round"/>
<path d="M600 405 C590 440 610 470 600 505 M640 420 C630 450 660 470 645 500" stroke="#6B4A33" stroke-width="4" fill="none" stroke-linecap="round" opacity=".6"/>
<path d="M930,228 Q933.96,246.04 952,250 Q933.96,253.96 930,272 Q926.04,253.96 908,250 Q926.04,246.04 930,228Z" fill="#E9B64F"/><path d="M980,308 Q982.16,317.84 992,320 Q982.16,322.16 980,332 Q977.84,322.16 968,320 Q977.84,317.84 980,308Z" fill="#9CBFA3"/><path d="M250,216 Q252.52,227.48 264,230 Q252.52,232.52 250,244 Q247.48,232.52 236,230 Q247.48,227.48 250,216Z" fill="#D9774A"/>
<circle cx="1010" cy="240" r="5" fill="#E9B64F"/><circle cx="220" cy="300" r="4" fill="#9CBFA3"/>
<rect width="1200" height="800" filter="url(#g)"/>
</svg>